<svg xmlns="http://www.w3.org/2000/svg" width="363.428" height="281.428" viewBox="0 0 363.428 281.428"><defs><style>.a,.c,.d,.e,.h{fill:none;}.a{stroke:#d8d8d8;opacity:0.12;}.b{opacity:0.34;}.c{stroke:#fff;stroke-linejoin:round;}.c,.e{stroke-linecap:round;}.c,.d,.e{stroke-width:2px;}.d,.f{stroke:#00c458;}.e{stroke:#cfcfcf;}.f{fill:#00202f;}.g{stroke:none;}</style></defs><g class="a" transform="translate(363.428 77.782) rotate(135)"><path class="g" d="M70.714,0H288a0,0,0,0,1,0,0V110a0,0,0,0,1,0,0H39.286A39.286,39.286,0,0,1,0,70.714v0A70.714,70.714,0,0,1,70.714,0Z"/><path class="h" d="M70.673.5H287.144a.356.356,0,0,1,.356.356V109.144a.356.356,0,0,1-.356.356H39.327A38.827,38.827,0,0,1,.5,70.673v0A70.173,70.173,0,0,1,70.673.5Z"/></g><g class="b" transform="translate(191.247 46.16)"><path class="c" d="M0,0,4.5,4.5,9.006,0l4.5,4.5,4.5-4.5,4.5,4.5,4.5-4.5" transform="translate(19.105 125.726) rotate(-135)"/><path class="c" d="M0,0,4.5,4.5,9.006,0l4.5,4.5,4.5-4.5,4.5,4.5,4.5-4.5" transform="translate(66.184 60.437) rotate(45)"/><g class="d" transform="translate(60.32 16.5)"><ellipse class="g" cx="5.5" cy="5.5" rx="5.5" ry="5.5"/><ellipse class="h" cx="5.5" cy="5.5" rx="4.5" ry="4.5"/></g><g class="d" transform="translate(5.32 16.5)"><ellipse class="g" cx="5.5" cy="5.5" rx="5.5" ry="5.5"/><ellipse class="h" cx="5.5" cy="5.5" rx="4.5" ry="4.5"/></g><line class="e" x1="11" y1="11" transform="translate(37.82 69)"/><line class="e" x1="11" y1="11" transform="translate(43.82 0)"/></g><g class="f" transform="translate(281.428 77.782) rotate(135)"><path class="g" d="M55,0H288a0,0,0,0,1,0,0V110a0,0,0,0,1,0,0H55A55,55,0,0,1,0,55v0A55,55,0,0,1,55,0Z"/><path class="h" d="M55,.5H287a.5.5,0,0,1,.5.5V109a.5.5,0,0,1-.5.5H55A54.5,54.5,0,0,1,.5,55v0A54.5,54.5,0,0,1,55,.5Z"/></g></svg>