<svg xmlns="http://www.w3.org/2000/svg" xmlns:xlink="http://www.w3.org/1999/xlink" width="400" height="80" viewBox="0 0 300 60"><defs><style>.a{fill:#002333;}.b{clip-path:url(#a);}.c,.d,.e{fill:none;stroke:#00c458;}.c{opacity:0.6;}.d{opacity:0.4;}.e{opacity:0.2;}</style><clipPath id="a"><rect class="a" width="311" height="64" rx="4" transform="translate(32 305)"/></clipPath></defs><g transform="translate(-32 -305)"><rect class="a" width="311" height="64" rx="4" transform="translate(32 305)"/><g class="b"><g transform="translate(27.495 341.333)"><path class="c" d="M17.5,1299.25s-1,11,25.5,7.5,32.25.25,37.5,7.25,1.75,19.5,23,19.5" transform="translate(-17.495 -1299.25)"/><path class="d" d="M14.956,1299.333s5.357,7.349,25.667,4.667,20.643,6.468,24.667,11.833,6.714,11.833,23,11.833" transform="translate(-14.451 -1289.5)"/><path class="e" d="M0,0S4.033,5.533,19.325,3.514s15.543,4.87,18.573,8.91,5.055,8.91,17.318,8.91" transform="matrix(1, 0.017, -0.017, 1, 1.754, 15.853)"/></g><g transform="translate(260.495 296.333)"><path class="c" d="M103.5,1333.5s1-11-25.5-7.5-32.25-.25-37.5-7.25-1.75-19.5-23-19.5" transform="translate(-17.495 -1295.333)"/><path class="d" d="M88.289,1327.667s-5.357-7.349-25.667-4.667-20.643-6.468-24.667-11.833-6.714-11.833-23-11.833" transform="translate(-2.789 -1299.333)"/><path class="e" d="M0,0S4.033,5.533,19.325,3.514s15.543,4.87,18.573,8.91,5.055,8.91,17.318,8.91" transform="matrix(-1, -0.017, 0.017, -1, 84.251, 22.314)"/></g></g></g></svg>