<svg xmlns="http://www.w3.org/2000/svg" width="144.703" height="131.289" viewBox="0 0 144.703 131.289"><defs><style>.a,.b,.c,.e{fill:none;}.a{stroke:#002333;stroke-linejoin:round;}.a,.c{stroke-linecap:round;}.a,.b,.c{stroke-width:2px;}.b{stroke:#00c458;}.c{stroke:#cfcfcf;}.d{stroke:none;}</style></defs><g transform="translate(-115.324 -189.937)"><path class="a" d="M509.667,242.333l4.5-4.5,4.5,4.5,4.5-4.5,4.5,4.5,4.5-4.5,4.5,4.5" transform="translate(-411.529 508.26) rotate(-45)"/><path class="a" d="M0,4.5,4.5,0l4.5,4.5,4.5-4.5,4.5,4.5,4.5-4.5,4.5,4.5" transform="translate(258.321 195.121) rotate(135)"/><g class="b" transform="translate(128 280)"><circle class="d" cx="5.5" cy="5.5" r="5.5"/><circle class="e" cx="5.5" cy="5.5" r="4.5"/></g><g class="b" transform="translate(236 220)"><circle class="d" cx="5.5" cy="5.5" r="5.5"/><circle class="e" cx="5.5" cy="5.5" r="4.5"/></g><line class="c" y1="11" x2="11" transform="translate(173.5 288.5)"/><line class="c" y1="11" x2="11" transform="translate(197.5 203.5)"/></g></svg>