<svg xmlns="http://www.w3.org/2000/svg" width="14" height="19.096" viewBox="0 0 14 19.096"><defs><style>.a,.b{fill:none;}.b{stroke:#fff;stroke-linecap:round;}.c,.d{stroke:none;}.d{fill:#fff;}</style></defs><g transform="translate(0 0.327)"><g transform="translate(0 0.173)"><g class="a" transform="translate(0 0.827)"><path class="c" d="M0,15V7.059a7,7,0,1,1,14,0V15Z"/><path class="d" d="M 13 14 L 13 7.0588698387146 C 13 3.717999935150146 10.30840969085693 1 7 1 C 3.691590070724487 1 1 3.717999935150146 1 7.0588698387146 L 1 14 L 13 14 M 14 15 L -8.881784197001252e-16 15 L -8.881784197001252e-16 7.0588698387146 C -8.881784197001252e-16 3.160569906234741 3.134200096130371 -8.881784197001252e-16 7 -8.881784197001252e-16 C 10.86577033996582 -8.881784197001252e-16 14 3.160569906234741 14 7.0588698387146 L 14 15 Z"/></g><path class="b" d="M-113,45.133V44.2" transform="translate(120.273 -44.203)"/><path class="b" d="M-115.25,62.813a2.271,2.271,0,0,0,1.747.771,2.127,2.127,0,0,0,1.787-.771" transform="translate(120.728 -45.488)"/></g></g></svg>