<svg xmlns="http://www.w3.org/2000/svg" width="18" height="17" viewBox="0 0 18 17"><defs><style>.a{fill:#fff;stroke:#c2c2c2;}.b{stroke:none;}.c{fill:none;}</style></defs><g transform="translate(-233 -750)"><g class="a" transform="translate(233 757)"><path class="b" d="M6.667,0h4.667A6.667,6.667,0,0,1,18,6.667v.667A2.667,2.667,0,0,1,15.333,10h-12A3.333,3.333,0,0,1,0,6.667v0A6.667,6.667,0,0,1,6.667,0Z"/><path class="c" d="M6.607.5h4.786A6.107,6.107,0,0,1,17.5,6.607V7.25A2.25,2.25,0,0,1,15.25,9.5H3.393A2.893,2.893,0,0,1,.5,6.607v0A6.107,6.107,0,0,1,6.607.5Z"/></g><g class="a" transform="translate(237 750)"><circle class="b" cx="5" cy="5" r="5"/><circle class="c" cx="5" cy="5" r="4.5"/></g></g></svg>