<svg xmlns="http://www.w3.org/2000/svg" width="17" height="20" viewBox="0 0 17 20"><defs><style>.a{fill:#fff;}.b,.c{stroke:none;}.c{fill:#c2c2c2;}</style></defs><g class="a" transform="translate(17) rotate(90)"><path class="b" d="M 16.5031681060791 16.50000190734863 L 3.496839046478271 16.50000190734863 C 2.952008962631226 16.50000190734863 2.465249061584473 16.2176513671875 2.194759130477905 15.74472141265869 C 1.924269080162048 15.27178192138672 1.927699089050293 14.70907115936279 2.203938961029053 14.23947143554688 L 8.707098960876465 3.184091567993164 C 8.979469299316406 2.721051454544067 9.462799072265625 2.444621562957764 9.999999046325684 2.444621562957764 C 10.53719902038574 2.444621562957764 11.02052879333496 2.721051454544067 11.2928991317749 3.184091567993164 L 17.79605865478516 14.23947143554688 C 18.07229995727539 14.70907115936279 18.07572937011719 15.27178192138672 17.80523872375488 15.74472141265869 C 17.53474998474121 16.2176513671875 17.04798889160156 16.50000190734863 16.5031681060791 16.50000190734863 Z"/><path class="c" d="M 9.999999046325684 2.944611549377441 C 9.828028678894043 2.944611549377441 9.399788856506348 2.99265193939209 9.138058662414551 3.437591552734375 L 2.634899139404297 14.49298095703125 C 2.36945915222168 14.94424152374268 2.542198181152344 15.3450813293457 2.628778457641602 15.49648094177246 C 2.715368270874023 15.64787101745605 2.973289489746094 16.00000190734863 3.496829986572266 16.00000190734863 L 16.50317001342773 16.00000190734863 C 17.02670860290527 16.00000190734863 17.28462982177734 15.64787101745605 17.37121963500977 15.49648094177246 C 17.45779800415039 15.3450813293457 17.63053894042969 14.94424152374268 17.36509895324707 14.49298095703125 L 10.86192893981934 3.437591552734375 C 10.60020923614502 2.99265193939209 10.17196941375732 2.944611549377441 9.999999046325684 2.944611549377441 M 9.999999046325684 1.944614410400391 C 10.66860866546631 1.944614410400391 11.33721923828125 2.273265838623047 11.72386932373047 2.930571556091309 L 18.22702980041504 13.9859619140625 C 19.01130867004395 15.31922149658203 18.04999923706055 17.00000190734863 16.50317001342773 17.00000190734863 L 3.496829986572266 17.00000190734863 C 1.94999885559082 17.00000190734863 0.9886894226074219 15.31922149658203 1.772968292236328 13.9859619140625 L 8.276128768920898 2.930571556091309 C 8.662778854370117 2.273265838623047 9.331389427185059 1.944614410400391 9.999999046325684 1.944614410400391 Z"/></g></svg>