<svg xmlns="http://www.w3.org/2000/svg" width="16" height="16" viewBox="0 0 16 16"><defs><style>.a{fill:#00c458;}</style></defs><path class="a" d="M10.26,9.391a4.775,4.775,0,0,1,1.016.455,4.519,4.519,0,0,1,.932.548.435.435,0,0,1,.021.155,2.163,2.163,0,0,1-.177.786,1.394,1.394,0,0,1-.739.677,2.479,2.479,0,0,1-1.063.274,5.659,5.659,0,0,1-1.979-.641A5.94,5.94,0,0,1,6.5,10.425,13.651,13.651,0,0,1,4.958,8.512a3.6,3.6,0,0,1-.739-2.005V6.425A2.279,2.279,0,0,1,4.99,4.792a.791.791,0,0,1,.542-.227,1.658,1.658,0,0,1,.188.016,1.687,1.687,0,0,0,.2.016.431.431,0,0,1,.276.067.744.744,0,0,1,.162.284q.083.207.344.91a6.108,6.108,0,0,1,.261.775,1.048,1.048,0,0,1-.359.594q-.359.378-.36.48a.293.293,0,0,0,.052.155A4.663,4.663,0,0,0,7.354,9.277a6.651,6.651,0,0,0,1.573,1.044.464.464,0,0,0,.229.073q.156,0,.563-.5t.542-.5ZM8.146,14.869a6.411,6.411,0,0,0,2.537-.517A6.417,6.417,0,0,0,14.167,10.9a6.342,6.342,0,0,0,0-5.034,6.533,6.533,0,0,0-1.4-2.072A6.608,6.608,0,0,0,10.682,2.4a6.484,6.484,0,0,0-5.073,0A6.608,6.608,0,0,0,3.521,3.789a6.533,6.533,0,0,0-1.4,2.072,6.385,6.385,0,0,0,.729,6.321L2.031,14.59l2.521-.8a6.441,6.441,0,0,0,3.594,1.075Zm0-14.284a7.683,7.683,0,0,1,3.047.62,7.734,7.734,0,0,1,4.182,4.15,7.624,7.624,0,0,1,0,6.046A7.859,7.859,0,0,1,13.7,13.887a7.946,7.946,0,0,1-2.505,1.664,7.679,7.679,0,0,1-3.047.62,7.782,7.782,0,0,1-3.8-.972L0,16.585,1.417,12.4a7.7,7.7,0,0,1-.5-7.044A7.862,7.862,0,0,1,2.594,2.869,7.949,7.949,0,0,1,5.1,1.205,7.671,7.671,0,0,1,8.146.585Z" transform="translate(0 -0.585)"/></svg>